#N canvas 372 181 967 386 10;
#X obj 56 121 oscformatAuto Wind;
#X msg 79 248 connect localhost 12000;
#X floatatom 56 345 5 0 0 0 - - -, f 5;
#X obj 477 135 oscparse;
#X msg 56 47 1 2 3 4;
#X msg 74 78 1 2 3 some strings 6 7;
#X text 258 247 <- connect it first;
#N canvas 0 50 450 300 CopyList 0;
#X obj 59 19 inlet;
#X obj 133 113 list length;
#X floatatom 133 135 5 0 0 0 - - -, f 5;
#X obj 133 208 f;
#X obj 133 230 t f f;
#X obj 133 252 + 1;
#X floatatom 165 283 5 0 0 0 - - -, f 5;
#X msg 197 184 1;
#X msg 165 304 adddollar \$1;
#X msg 160 446 add2 \$1 \$2 \$3 \$4 \$5 \$6 \$7 \$8;
#X obj 325 517 outlet;
#X obj 59 41 list;
#X msg 326 184 set;
#X obj 133 156 trigger float bang bang bang;
#X msg 261 184 set add2;
#X obj 133 186 until;
#X obj 59 81 trigger a a;
#X connect 0 0 11 0;
#X connect 1 0 2 0;
#X connect 2 0 13 0;
#X connect 3 0 4 0;
#X connect 4 0 5 0;
#X connect 4 1 6 0;
#X connect 5 0 3 1;
#X connect 6 0 8 0;
#X connect 7 0 3 1;
#X connect 8 0 9 0;
#X connect 9 0 10 0;
#X connect 11 0 16 0;
#X connect 12 0 10 0;
#X connect 13 0 15 0;
#X connect 13 1 7 0;
#X connect 13 2 14 0;
#X connect 13 3 12 0;
#X connect 14 0 9 0;
#X connect 15 0 3 0;
#X connect 16 0 9 0;
#X connect 16 1 1 0;
#X restore 477 166 pd CopyList;
#X msg 477 188 Wind 1 2 3 some strings 6 7;
#N canvas 0 50 450 300 CopyList 0;
#X obj 59 19 inlet;
#X obj 133 113 list length;
#X floatatom 133 135 5 0 0 0 - - -, f 5;
#X obj 133 208 f;
#X obj 133 230 t f f;
#X obj 133 252 + 1;
#X floatatom 165 283 5 0 0 0 - - -, f 5;
#X msg 197 184 1;
#X msg 165 304 adddollar \$1;
#X msg 160 446 add2 \$1;
#X obj 325 517 outlet;
#X obj 59 41 list;
#X msg 326 184 set;
#X obj 133 156 trigger float bang bang bang;
#X msg 261 184 set add2;
#X obj 133 186 until;
#X obj 59 81 trigger a a;
#X connect 0 0 11 0;
#X connect 1 0 2 0;
#X connect 2 0 13 0;
#X connect 3 0 4 0;
#X connect 4 0 5 0;
#X connect 4 1 6 0;
#X connect 5 0 3 1;
#X connect 6 0 8 0;
#X connect 7 0 3 1;
#X connect 8 0 9 0;
#X connect 9 0 10 0;
#X connect 11 0 16 0;
#X connect 12 0 10 0;
#X connect 13 0 15 0;
#X connect 13 1 7 0;
#X connect 13 2 14 0;
#X connect 13 3 12 0;
#X connect 14 0 9 0;
#X connect 15 0 3 0;
#X connect 16 0 9 0;
#X connect 16 1 1 0;
#X restore 179 157 pd CopyList;
#X msg 179 179 iiissii;
#X obj 56 323 netsend -u -b;
#X obj 476 112 netreceive -u -b 12000;
#X connect 0 0 11 0;
#X connect 0 1 9 0;
#X connect 1 0 11 0;
#X connect 3 0 7 0;
#X connect 4 0 0 0;
#X connect 5 0 0 0;
#X connect 7 0 8 0;
#X connect 9 0 10 0;
#X connect 11 0 2 0;
#X connect 12 0 3 0;
