#N canvas 1144 69 729 866 10;
#X obj 87 18 inlet;
#X obj 131 158 list length;
#X floatatom 131 180 5 0 0 0 - - -, f 5;
#X obj 131 199 easyflow/for;
#X floatatom 212 224 5 0 0 0 - - -, f 5;
#X obj 136 303 list-abs/list-nth;
#X obj 136 276 list;
#X obj 212 243 t b f;
#X obj 274 276 - 1;
#X obj 136 335 route integer float symbol list bang, f 41;
#X floatatom 192 364 5 0 0 0 - - -, f 5;
#X floatatom 136 363 5 0 0 0 - - -, f 5;
#X text 120 362 i;
#X text 181 363 f;
#X symbolatom 249 363 10 0 0 0 - - -, f 10;
#X obj 327 363 list;
#X obj 373 364 bng 15 250 50 0 empty empty empty 17 7 0 10 -262144
-1 -1;
#X obj 192 383 bng 15 250 50 0 empty empty empty 17 7 0 10 -262144
-1 -1;
#X msg 192 467 i i i s;
#X obj 87 130 trigger anything anything anything bang;
#X msg 357 157 set;
#X obj 249 382 bng 15 250 50 0 empty empty empty 17 7 0 10 -262144
-1 -1;
#X msg 249 404 add2 s;
#N canvas 0 50 450 300 convertToSymbol 0;
#X obj 97 47 inlet;
#X obj 97 69 list prepend symbol;
#X obj 97 91 list trim;
#X obj 97 113 outlet;
#X connect 0 0 1 0;
#X connect 1 0 2 0;
#X connect 2 0 3 0;
#X restore 420 360 pd convertToSymbol;
#X symbolatom 420 382 10 0 0 0 - - -, f 10;
#X msg 420 401 add2 s;
#X msg 373 384;
#X obj 162 499 bng 15 250 50 0 empty empty empty 17 7 0 10 -262144
-1 -1;
#X obj 192 511 easyflow/ListConcatenate;
#X msg 192 583 iiis;
#X obj 192 705 oscformat \$1;
#X obj 364 708 outlet;
#X obj 192 605 trigger anything anything;
#X obj 192 627 list prepend format;
#X obj 36 523 list;
#X obj 36 545 trigger a b;
#X obj 192 727 list prepend send;
#X obj 192 749 list trim;
#X obj 192 771 outlet;
#X obj 192 649 list trim;
#X msg 192 405 add2 i;
#X obj 136 384 bng 15 250 50 0 empty empty empty 17 7 0 10 -262144
-1 -1;
#X msg 136 406 add2 i;
#X obj 192 533 easyflow/CopyList;
#X obj 87 40 route set;
#X obj 393 42 list prepend set;
#X obj 393 64 list trim;
#X connect 0 0 44 0;
#X connect 1 0 2 0;
#X connect 2 0 3 0;
#X connect 3 0 18 0;
#X connect 3 1 4 0;
#X connect 4 0 7 0;
#X connect 5 0 9 0;
#X connect 6 0 5 0;
#X connect 7 0 6 0;
#X connect 7 1 8 0;
#X connect 8 0 5 1;
#X connect 9 0 11 0;
#X connect 9 1 10 0;
#X connect 9 2 14 0;
#X connect 9 3 15 0;
#X connect 9 4 16 0;
#X connect 9 5 23 0;
#X connect 10 0 17 0;
#X connect 11 0 41 0;
#X connect 14 0 21 0;
#X connect 16 0 26 0;
#X connect 17 0 40 0;
#X connect 18 0 27 0;
#X connect 18 0 28 0;
#X connect 19 0 34 0;
#X connect 19 1 1 0;
#X connect 19 2 6 1;
#X connect 19 3 20 0;
#X connect 20 0 18 0;
#X connect 21 0 22 0;
#X connect 22 0 18 0;
#X connect 23 0 24 0;
#X connect 24 0 25 0;
#X connect 25 0 18 0;
#X connect 28 0 43 0;
#X connect 29 0 32 0;
#X connect 30 0 36 0;
#X connect 32 0 33 0;
#X connect 32 1 31 0;
#X connect 33 0 39 0;
#X connect 34 0 35 0;
#X connect 35 0 30 0;
#X connect 35 1 29 0;
#X connect 36 0 37 0;
#X connect 37 0 38 0;
#X connect 39 0 30 0;
#X connect 40 0 18 0;
#X connect 41 0 42 0;
#X connect 42 0 18 0;
#X connect 43 0 29 0;
#X connect 44 0 45 0;
#X connect 44 1 19 0;
#X connect 45 0 46 0;
#X connect 46 0 30 0;
